<svg xmlns="http://www.w3.org/2000/svg" viewBox="0 0 461.1 539.8">
  <path fill="#DB0007" d="M230.5 0C103.2 0 0 103.2 0 230.5v309.3h461.1V230.5C461.1 103.2 357.9 0 230.5 0z"/>
  <path fill="#063672" d="M230.5 17.5c-117.6 0-213 95.4-213 213v291.8h425.9V230.5c.1-117.6-95.3-213-212.9-213z"/>
  <path fill="#FFF" d="M230.5 30.2c-110.6 0-200.3 89.7-200.3 200.3v279.1h400.6V230.5c0-110.6-89.7-200.3-200.3-200.3z"/>
  <path fill="#DB0007" d="M230.5 42.8c-103.6 0-187.6 84-187.6 187.6v266.5h375.3V230.4c-.1-103.6-84-187.6-187.7-187.6z"/>
  <path fill="#FFF" d="M129.2 461.8h202.7v24.6H129.2z"/>
  <path fill="#A29061" d="M110.4 446.8h240.2v4.8H110.4z"/>
  <path fill="#FFF" d="M259.9 123.6c-13.8-4.8-28.8-7.4-44.4-7.4-18.3 0-35.6 3.6-51.4 10.1l42.6 109H97.4l-4.5 11.4h113.8l42.6 109c13.8 4.8 28.8 7.4 44.4 7.4 18.3 0 35.6-3.6 51.4-10.1l-42.6-109h109.3l4.5-11.4H296.3l-36.4-93c4.2.9 8.3 2 12.3 3.3l-12.3-3.3zm-44.4 34.1c11.9 0 22.8 3.5 32 9.5l-32 81.8-32-81.8c9.2-6 20.1-9.5 32-9.5zm76.3 125.1c-11.9 0-22.8-3.5-32-9.5l32-81.8 32 81.8c-9.2 6-20.1 9.5-32 9.5z"/>
  <path fill="#FFF" d="M115.6 157.9l11.8 9.5 44-77.8c-19.1 5.9-36.8 15.3-52.2 27.6l-3.6 40.7zm229.8 145.9l-11.8-9.5-44 77.8c19.1-5.9 36.8-15.3 52.2-27.6l3.6-40.7z"/>
  <path fill="#A29061" d="M230.5 496.9h-82.6v12.3h165.2v-12.3h-82.6z"/>
</svg>
